HIERARCHY
ROOT Hips
{
    OFFSET 0.000 0 0.000
    CHANNELS 6 Xposition Yposition Zposition Zrotation Xrotation Yrotation
    JOINT RightUpLeg
    {
        OFFSET -10.280 -1.737 0.000
        CHANNELS 3 Zrotation Xrotation Yrotation
        JOINT RightLeg
        {
            OFFSET 0.000 -45.650 0.000
            CHANNELS 3 Zrotation Xrotation Yrotation
            JOINT RightFoot
            {
                OFFSET 0.000 -45.650 0.000
                CHANNELS 3 Zrotation Xrotation Yrotation
                End Site
                {
                    OFFSET 0.000 -8.080 18.389
                }
            }
        }
    }
    JOINT LeftUpLeg
    {
        OFFSET 10.280 -1.737 0.000
        CHANNELS 3 Zrotation Xrotation Yrotation
        JOINT LeftLeg
        {
            OFFSET 0.000 -45.650 0.000
            CHANNELS 3 Zrotation Xrotation Yrotation
            JOINT LeftFoot
            {
                OFFSET 0.000 -45.650 0.000
                CHANNELS 3 Zrotation Xrotation Yrotation
                End Site
                {
                    OFFSET 0.000 -8.080 18.389
                }
            }
        }
    }
    JOINT Spine
    {
        OFFSET 0.000 15.634 0.000
        CHANNELS 3 Zrotation Xrotation Yrotation
        JOINT Spine1
        {
            OFFSET 0.000 10.620 0.000
            CHANNELS 3 Zrotation Xrotation Yrotation
            JOINT Spine2
            {
                OFFSET 0.000 11.058 0.000
                CHANNELS 3 Zrotation Xrotation Yrotation
                JOINT Spine3
                {
                    OFFSET 0.000 10.620 0.000
                    CHANNELS 3 Zrotation Xrotation Yrotation
                    JOINT Neck
                    {
                        OFFSET 0.000 11.351 0.000
                        CHANNELS 3 Zrotation Xrotation Yrotation
                        JOINT Head
                        {
                            OFFSET 0.000 10.250 0.000
                            CHANNELS 3 Zrotation Xrotation Yrotation
                            End Site
                            {
                                OFFSET 0.000 17.430 0.000
                            }
                        }
                    }
                    JOINT RightShoulder
                    {
                        OFFSET -3.443 7.567 0.000
                        CHANNELS 3 Zrotation Xrotation Yrotation
                        JOINT RightArm
                        {
                            OFFSET -13.772 0.000 0.000
                            CHANNELS 3 Zrotation Xrotation Yrotation
                            JOINT RightForeArm
                            {
                                OFFSET -28.780 0.000 0.000
                                CHANNELS 3 Zrotation Xrotation Yrotation
                                JOINT RightHand
                                {
                                    OFFSET -28.260 0.000 0.000
                                    CHANNELS 3 Zrotation Xrotation Yrotation
                                    JOINT RightHandThumb1
                                    {
                                        OFFSET -2.702 0.206 3.388
                                        CHANNELS 3 Zrotation Xrotation Yrotation
                                        JOINT RightHandThumb2
                                        {
                                            OFFSET -3.998 0.000 0.000
                                            CHANNELS 3 Zrotation Xrotation Yrotation
                                            JOINT RightHandThumb3
                                            {
                                                OFFSET -2.778 0.000 0.000
                                                CHANNELS 3 Zrotation Xrotation Yrotation
                                                End Site
                                                {
                                                    OFFSET -2.382 0.000 0.000
                                                }
                                            }
                                        }
                                    }
                                    JOINT RightInHandIndex
                                    {
                                        OFFSET -3.500 0.552 2.148
                                        CHANNELS 3 Zrotation Xrotation Yrotation
                                        JOINT RightHandIndex1
                                        {
                                            OFFSET -5.664 -0.099 1.085
                                            CHANNELS 3 Zrotation Xrotation Yrotation
                                            JOINT RightHandIndex2
                                            {
                                                OFFSET -3.930 0.000 0.000
                                                CHANNELS 3 Zrotation Xrotation Yrotation
                                                JOINT RightHandIndex3
                                                {
                                                    OFFSET -2.228 0.000 0.000
                                                    CHANNELS 3 Zrotation Xrotation Yrotation
                                                    End Site
                                                    {
                                                        OFFSET -1.960 0.000 0.000
                                                    }
                                                }
                                            }
                                        }
                                    }
                                    JOINT RightInHandMiddle
                                    {
                                        OFFSET -3.672 0.562 0.822
                                        CHANNELS 3 Zrotation Xrotation Yrotation
                                        JOINT RightHandMiddle1
                                        {
                                            OFFSET -5.618 -0.091 0.341
                                            CHANNELS 3 Zrotation Xrotation Yrotation
                                            JOINT RightHandMiddle2
                                            {
                                                OFFSET -4.288 0.000 0.000
                                                CHANNELS 3 Zrotation Xrotation Yrotation
                                                JOINT RightHandMiddle3
                                                {
                                                    OFFSET -2.688 0.000 0.000
                                                    CHANNELS 3 Zrotation Xrotation Yrotation
                                                    End Site
                                                    {
                                                        OFFSET -2.144 0.000 0.000
                                                    }
                                                }
                                            }
                                        }
                                    }
                                    JOINT RightInHandRing
                                    {
                                        OFFSET -3.654 0.584 -0.140
                                        CHANNELS 3 Zrotation Xrotation Yrotation
                                        JOINT RightHandRing1
                                        {
                                            OFFSET -5.032 -0.024 -0.520
                                            CHANNELS 3 Zrotation Xrotation Yrotation
                                            JOINT RightHandRing2
                                            {
                                                OFFSET -3.737 0.000 0.000
                                                CHANNELS 3 Zrotation Xrotation Yrotation
                                                JOINT RightHandRing3
                                                {
                                                    OFFSET -2.593 0.000 0.000
                                                    CHANNELS 3 Zrotation Xrotation Yrotation
                                                    End Site
                                                    {
                                                        OFFSET -2.016 0.000 0.000
                                                    }
                                                }
                                            }
                                        }
                                    }
                                    JOINT RightInHandPinky
                                    {
                                        OFFSET -3.432 0.510 -1.305
                                        CHANNELS 3 Zrotation Xrotation Yrotation
                                        JOINT RightHandPinky1
                                        {
                                            OFFSET -4.496 -0.024 -1.184
                                            CHANNELS 3 Zrotation Xrotation Yrotation
                                            JOINT RightHandPinky2
                                            {
                                                OFFSET -2.993 0.000 0.000
                                                CHANNELS 3 Zrotation Xrotation Yrotation
                                                JOINT RightHandPinky3
                                                {
                                                    OFFSET -1.891 0.000 0.000
                                                    CHANNELS 3 Zrotation Xrotation Yrotation
                                                    End Site
                                                    {
                                                        OFFSET -1.786 0.000 0.000
                                                    }
                                                }
                                            }
                                        }
                                    }
                                }
                            }
                        }
                    }
                    JOINT LeftShoulder
                    {
                        OFFSET 3.443 7.567 0.000
                        CHANNELS 3 Zrotation Xrotation Yrotation
                        JOINT LeftArm
                        {
                            OFFSET 13.772 0.000 0.000
                            CHANNELS 3 Zrotation Xrotation Yrotation
                            JOINT LeftForeArm
                            {
                                OFFSET 28.780 0.000 0.000
                                CHANNELS 3 Zrotation Xrotation Yrotation
                                JOINT LeftHand
                                {
                                    OFFSET 28.260 0.000 0.000
                                    CHANNELS 3 Zrotation Xrotation Yrotation
                                    JOINT LeftHandThumb1
                                    {
                                        OFFSET 2.702 0.206 3.388
                                        CHANNELS 3 Zrotation Xrotation Yrotation
                                        JOINT LeftHandThumb2
                                        {
                                            OFFSET 3.998 0.000 0.000
                                            CHANNELS 3 Zrotation Xrotation Yrotation
                                            JOINT LeftHandThumb3
                                            {
                                                OFFSET 2.778 0.000 0.000
                                                CHANNELS 3 Zrotation Xrotation Yrotation
                                                End Site
                                                {
                                                    OFFSET 2.382 0.000 0.000
                                                }
                                            }
                                        }
                                    }
                                    JOINT LeftInHandIndex
                                    {
                                        OFFSET 3.500 0.552 2.148
                                        CHANNELS 3 Zrotation Xrotation Yrotation
                                        JOINT LeftHandIndex1
                                        {
                                            OFFSET 5.664 -0.099 1.085
                                            CHANNELS 3 Zrotation Xrotation Yrotation
                                            JOINT LeftHandIndex2
                                            {
                                                OFFSET 3.930 0.000 0.000
                                                CHANNELS 3 Zrotation Xrotation Yrotation
                                                JOINT LeftHandIndex3
                                                {
                                                    OFFSET 2.228 0.000 0.000
                                                    CHANNELS 3 Zrotation Xrotation Yrotation
                                                    End Site
                                                    {
                                                        OFFSET 1.960 0.000 0.000
                                                    }
                                                }
                                            }
                                        }
                                    }
                                    JOINT LeftInHandMiddle
                                    {
                                        OFFSET 3.672 0.562 0.822
                                        CHANNELS 3 Zrotation Xrotation Yrotation
                                        JOINT LeftHandMiddle1
                                        {
                                            OFFSET 5.618 -0.091 0.341
                                            CHANNELS 3 Zrotation Xrotation Yrotation
                                            JOINT LeftHandMiddle2
                                            {
                                                OFFSET 4.288 0.000 0.000
                                                CHANNELS 3 Zrotation Xrotation Yrotation
                                                JOINT LeftHandMiddle3
                                                {
                                                    OFFSET 2.688 0.000 0.000
                                                    CHANNELS 3 Zrotation Xrotation Yrotation
                                                    End Site
                                                    {
                                                        OFFSET 2.144 0.000 0.000
                                                    }
                                                }
                                            }
                                        }
                                    }
                                    JOINT LeftInHandRing
                                    {
                                        OFFSET 3.654 0.584 -0.140
                                        CHANNELS 3 Zrotation Xrotation Yrotation
                                        JOINT LeftHandRing1
                                        {
                                            OFFSET 5.032 -0.024 -0.520
                                            CHANNELS 3 Zrotation Xrotation Yrotation
                                            JOINT LeftHandRing2
                                            {
                                                OFFSET 3.737 0.000 0.000
                                                CHANNELS 3 Zrotation Xrotation Yrotation
                                                JOINT LeftHandRing3
                                                {
                                                    OFFSET 2.593 0.000 0.000
                                                    CHANNELS 3 Zrotation Xrotation Yrotation
                                                    End Site
                                                    {
                                                        OFFSET 2.016 0.000 0.000
                                                    }
                                                }
                                            }
                                        }
                                    }
                                    JOINT LeftInHandPinky
                                    {
                                        OFFSET 3.432 0.510 -1.305
                                        CHANNELS 3 Zrotation Xrotation Yrotation
                                        JOINT LeftHandPinky1
                                        {
                                            OFFSET 4.496 -0.024 -1.184
                                            CHANNELS 3 Zrotation Xrotation Yrotation
                                            JOINT LeftHandPinky2
                                            {
                                                OFFSET 2.993 0.000 0.000
                                                CHANNELS 3 Zrotation Xrotation Yrotation
                                                JOINT LeftHandPinky3
                                                {
                                                    OFFSET 1.891 0.000 0.000
                                                    CHANNELS 3 Zrotation Xrotation Yrotation
                                                    End Site
                                                    {
                                                        OFFSET 1.786 0.000 0.000
                                                    }
                                                }
                                            }
                                        }
                                    }
                                }
                            }
                        }
                    }
                }
            }
        }
    }
}
MOTION
Frames: 4
Frame Time: 0.0333
39.848240 100.492943 218.651169 0.041046 -3.399271 -18.277563 1.088884 -13.468253 5.952678 0.000000 40.750885 -0.000001 0.720982 3.478970 -15.887292 6.433946 -5.185410 23.273218 0.000000 24.938309 -0.000001 -7.405948 -15.288747 -4.594710 -3.930389 6.574019 9.365970 -0.880245 1.774544 2.242551 -1.493649 2.973971 3.662355 0.298403 0.146460 -1.338130 0.299980 0.154970 -1.352586 6.292720 2.955752 -25.091423 -0.358894 -2.649091 -8.806295 82.681938 1.019892 2.153667 4.540816 31.219528 14.938376 -6.148331 -6.738708 -2.258439 28.184042 10.729352 19.159164 -0.000000 0.000000 -10.000000 -0.000000 0.000000 -10.000000 -0.000000 0.000000 -0.000000 19.981762 0.871897 2.396401 24.000000 0.000000 -0.000000 20.000000 0.000000 -0.000000 -0.000000 0.000000 -0.000000 20.000000 0.000000 -0.000000 24.000000 0.000000 -0.000000 20.000000 0.000000 -0.000000 -0.000000 0.000000 -0.000000 19.974758 -1.025646 -2.819379 24.000000 0.000000 -0.000000 20.000000 0.000000 -0.000000 -0.000000 0.000000 -0.000000 19.781452 -3.009481 -8.305146 24.000000 0.000000 -0.000000 20.000000 0.000000 -0.000000 -1.548344 0.044754 -20.503717 -73.570366 0.160103 -1.588221 -1.331801 -8.623772 -14.083248 0.340051 0.235103 1.265725 -28.184042 10.729352 -19.159164 -0.000000 0.000000 10.000000 -0.000000 0.000000 10.000000 -0.000000 0.000000 -0.000000 -19.981762 0.871897 -2.396401 -24.000000 0.000000 -0.000000 -20.000000 0.000000 -0.000000 -0.000000 0.000000 -0.000000 -20.000000 0.000000 -0.000000 -24.000000 0.000000 -0.000000 -20.000000 0.000000 -0.000000 -0.000000 0.000000 -0.000000 -19.974758 -1.025646 2.819379 -24.000000 0.000000 -0.000000 -20.000000 0.000000 -0.000000 -0.000000 0.000000 -0.000000 -19.781452 -3.009481 8.305146 -24.000000 0.000000 -0.000000 -20.000000 0.000000 -0.000000 
40.060696 100.368713 220.109253 -0.160942 -3.008301 -24.330395 1.669126 -15.507610 5.636104 -0.000001 35.312889 0.000004 -0.277438 0.266220 -14.738054 6.218934 -3.460977 26.764023 0.000000 24.825424 -0.000000 -7.231583 -17.249941 -2.030728 -3.896975 6.556471 10.263254 -0.863038 1.770629 2.471515 -1.466822 2.961339 4.036286 0.295831 0.124151 -1.337141 0.297363 0.132630 -1.351703 6.162801 2.582305 -25.064661 -0.139513 -3.014874 -8.938933 82.369659 0.467573 1.734074 4.067997 31.978966 15.786340 -7.121115 -5.578324 -2.405054 28.184042 10.729352 19.159164 -0.000000 0.000000 -10.000000 -0.000000 0.000000 -10.000000 -0.000000 0.000000 -0.000000 19.981762 0.871897 2.396401 24.000000 0.000000 -0.000000 20.000000 0.000000 -0.000000 -0.000000 0.000000 -0.000000 20.000000 0.000000 -0.000000 24.000000 0.000000 -0.000000 20.000000 0.000000 -0.000000 -0.000000 0.000000 -0.000000 19.974758 -1.025646 -2.819379 24.000000 0.000000 -0.000000 20.000000 0.000000 -0.000000 -0.000000 0.000000 -0.000000 19.781452 -3.009481 -8.305146 24.000000 0.000000 -0.000000 20.000000 0.000000 -0.000000 -1.911202 -0.082554 -20.687843 -73.270233 0.564641 -1.407324 -1.439247 -8.548090 -14.642360 0.232628 -0.255845 1.611785 -28.184042 10.729352 -19.159164 -0.000000 0.000000 10.000000 -0.000000 0.000000 10.000000 -0.000000 0.000000 -0.000000 -19.981762 0.871897 -2.396401 -24.000000 0.000000 -0.000000 -20.000000 0.000000 -0.000000 -0.000000 0.000000 -0.000000 -20.000000 0.000000 -0.000000 -24.000000 0.000000 -0.000000 -20.000000 0.000000 -0.000000 -0.000000 0.000000 -0.000000 -19.974758 -1.025646 2.819379 -24.000000 0.000000 -0.000000 -20.000000 0.000000 -0.000000 -0.000000 0.000000 -0.000000 -19.781452 -3.009481 8.305146 -24.000000 0.000000 -0.000000 -20.000000 0.000000 -0.000000 
40.222271 100.239738 221.518829 -0.388006 -2.944511 -26.363474 1.979142 -18.697174 4.567056 0.000001 34.319660 -0.000001 -0.372661 -0.362995 -14.527698 5.760364 -2.411580 27.119198 0.000000 24.936724 0.000000 -6.916848 -18.712204 -0.302351 -3.494895 6.973153 8.726109 -0.772426 1.836130 2.089692 -1.313195 3.055653 3.419440 0.267512 0.108602 -1.235251 0.268671 0.115717 -1.246704 5.474894 2.268898 -23.011179 -0.457055 -3.453463 -6.876489 82.262260 0.297924 1.571794 3.854485 32.216385 16.021133 -7.383698 -5.334128 -2.454989 28.184042 10.729352 19.159164 -0.000000 0.000000 -10.000000 -0.000000 0.000000 -10.000000 -0.000000 0.000000 -0.000000 19.981762 0.871897 2.396401 24.000000 0.000000 -0.000000 20.000000 0.000000 -0.000000 -0.000000 0.000000 -0.000000 20.000000 0.000000 -0.000000 24.000000 0.000000 -0.000000 20.000000 0.000000 -0.000000 -0.000000 0.000000 -0.000000 19.974758 -1.025646 -2.819379 24.000000 0.000000 -0.000000 20.000000 0.000000 -0.000000 -0.000000 0.000000 -0.000000 19.781452 -3.009481 -8.305146 24.000000 0.000000 -0.000000 20.000000 0.000000 -0.000000 -2.477218 -0.474666 -18.692944 -73.175064 0.647229 -1.456323 -1.494090 -8.237950 -14.737473 0.219971 -0.264390 1.921687 -28.184042 10.729352 -19.159164 -0.000000 0.000000 10.000000 -0.000000 0.000000 10.000000 -0.000000 0.000000 -0.000000 -19.981762 0.871897 -2.396401 -24.000000 0.000000 -0.000000 -20.000000 0.000000 -0.000000 -0.000000 0.000000 -0.000000 -20.000000 0.000000 -0.000000 -24.000000 0.000000 -0.000000 -20.000000 0.000000 -0.000000 -0.000000 0.000000 -0.000000 -19.974758 -1.025646 2.819379 -24.000000 0.000000 -0.000000 -20.000000 0.000000 -0.000000 -0.000000 0.000000 -0.000000 -19.781452 -3.009481 8.305146 -24.000000 0.000000 -0.000000 -20.000000 0.000000 -0.000000 
40.286549 100.076172 222.951462 -0.793407 -2.635309 -30.401056 2.622577 -20.388664 3.393249 -0.000001 29.993181 0.000000 -0.675231 -2.246363 -16.451998 5.312509 -1.155751 28.099150 0.000000 24.940548 -0.000000 -6.333218 -20.459791 3.045020 -3.253711 7.100174 8.427121 -0.713835 1.849679 2.020599 -1.215039 3.068877 3.310231 0.269827 0.086909 -1.232520 0.270987 0.094036 -1.244028 5.443390 1.893396 -22.950026 -0.102072 -3.581524 -6.961015 82.103119 0.124748 1.193701 3.652718 32.091835 16.179110 -7.384292 -5.575628 -2.788597 28.184042 10.729352 19.159164 -0.000000 0.000000 -10.000000 -0.000000 0.000000 -10.000000 -0.000000 0.000000 -0.000000 19.981762 0.871897 2.396401 24.000000 0.000000 -0.000000 20.000000 0.000000 -0.000000 -0.000000 0.000000 -0.000000 20.000000 0.000000 -0.000000 24.000000 0.000000 -0.000000 20.000000 0.000000 -0.000000 -0.000000 0.000000 -0.000000 19.974758 -1.025646 -2.819379 24.000000 0.000000 -0.000000 20.000000 0.000000 -0.000000 -0.000000 0.000000 -0.000000 19.781452 -3.009481 -8.305146 24.000000 0.000000 -0.000000 20.000000 0.000000 -0.000000 -2.379240 -0.447835 -18.850557 -73.241043 0.920537 -1.480804 -1.228350 -7.575518 -14.769577 0.051558 0.277873 2.420182 -28.184042 10.729352 -19.159164 -0.000000 0.000000 10.000000 -0.000000 0.000000 10.000000 -0.000000 0.000000 -0.000000 -19.981762 0.871897 -2.396401 -24.000000 0.000000 -0.000000 -20.000000 0.000000 -0.000000 -0.000000 0.000000 -0.000000 -20.000000 0.000000 -0.000000 -24.000000 0.000000 -0.000000 -20.000000 0.000000 -0.000000 -0.000000 0.000000 -0.000000 -19.974758 -1.025646 2.819379 -24.000000 0.000000 -0.000000 -20.000000 0.000000 -0.000000 -0.000000 0.000000 -0.000000 -19.781452 -3.009481 8.305146 -24.000000 0.000000 -0.000000 -20.000000 0.000000 -0.000000 
